<svg height="24" viewBox="0 0 24 24" width="24" xmlns="http://www.w3.org/2000/svg"><g fill="#141414" fill-rule="evenodd"><path d="m6 4h-2v2c-1.1045695 0-2-.8954305-2-2s.8954305-2 2-2 2 .8954305 2 2zm-2 14v2h2c0 1.1045695-.8954305 2-2 2s-2-.8954305-2-2 .8954305-2 2-2zm14 2h2v-2c1.1045695 0 2 .8954305 2 2s-.8954305 2-2 2-2-.8954305-2-2z"/><g fill-rule="nonzero"><path d="m4 4h10c.5522847 0 1-.44771525 1-1s-.4477153-1-1-1h-10c-.55228475 0-1 .44771525-1 1s.44771525 1 1 1z"/><path d="m4 22h16c.5522847 0 1-.4477153 1-1s-.4477153-1-1-1h-16c-.55228475 0-1 .4477153-1 1s.44771525 1 1 1z"/><path d="m20 10v10c0 .5522847.4477153 1 1 1s1-.4477153 1-1v-10c0-.55228475-.4477153-1-1-1s-1 .44771525-1 1z"/><path d="m2 4v16c0 .5522847.44771525 1 1 1s1-.4477153 1-1v-16c0-.55228475-.44771525-1-1-1s-1 .44771525-1 1z"/><path d="m21 2-10 10v1h1l10-10zm1.4142136-1.41421356 1 1c.7810485.78104858.7810485 2.04737854 0 2.82842712l-10 10.00000004c-.3750728.3750727-.8837806.5857864-1.4142136.5857864h-1c-1.1045695 0-2-.8954305-2-2v-1c0-.530433.21071368-1.0391408.58578644-1.4142136l9.99999996-9.99999996c.7810486-.78104859 2.0473786-.78104859 2.8284272 0z"/></g><path d="m9 13h2v2h-2z"/></g></svg>