<svg fill="none" height="16" viewBox="0 0 16 16" width="16" xmlns="http://www.w3.org/2000/svg"><g fill="#212121"><path d="m3 3c0-1.10457.89543-2 2-2s2 .89543 2 2c0 .64476-.3051 1.21826-.7788 1.584-.01425.01051-.02841.02115-.04247.0319-.33054.24153-.73799.3841-1.17873.3841-1.10457 0-2-.89543-2-2zm2-1c-.55228 0-1 .44772-1 1s.44772 1 1 1 1-.44772 1-1-.44772-1-1-1z"/><path d="m9.7788 4.584c-.4737-.36574-.7788-.93924-.7788-1.584 0-1.10457.89543-2 2-2 1.1046 0 2 .89543 2 2s-.8954 2-2 2c-.4407 0-.8482-.14256-1.17873-.38409-.01406-.01076-.02822-.0214-.04247-.03191zm1.2212-2.584c-.5523 0-1 .44772-1 1s.4477 1 1 1 1-.44772 1-1-.4477-1-1-1z"/><path d="m2.49998 6h2.67073c-.11056.31278-.17071.64936-.17071 1h-2.50002c-.27611 0-.49998.22387-.49998.5 0 .81691.32453 1.42273.8381 1.83495.23614.18954.51894.34303.83862.4546-.2322.24745-.41461.54215-.53125.86805-.33996-.1383-.65449-.319-.93332-.5428-.75318-.60453-1.21215-1.49872-1.21215-2.6148 0-.82839.67156-1.5 1.49998-1.5z"/><path d="m6.26756 6c-.17017.29417-.26756.63571-.26756 1 0 .84354.52222 1.56511 1.26101 1.85904.22861.09095.47796.14096.73899.14096s.51039-.05001.739-.14096c.73878-.29394 1.261-1.0155 1.261-1.85904 0-.36429-.09739-.70583-.26756-1-.34581-.5978-.99216-1-1.73244-1s-1.38663.4022-1.73244 1zm1.50807.02527c.07213-.01654.14723-.02527.22437-.02527s.15224.00873.22437.02527c.44425.10184.77563.49959.77563.97473 0 .07714-.00873.15224-.02527.22437-.10184.44425-.49959.77563-.97473.77563s-.87289-.33138-.97473-.77563c-.01653-.07212-.02527-.14723-.02527-.22437 0-.47514.33138-.87289.77563-.97473z"/><path d="m13.1619 9.33495c-.2361.18954-.5189.34303-.8386.4546.2322.24745.4146.54215.5312.86805.34-.1383.6545-.319.9334-.5428.7531-.60453 1.2121-1.49872 1.2121-2.6148 0-.82843-.6716-1.5-1.5-1.5h-2.6707c.1105.31278.1707.64936.1707 1h2.5c.2761 0 .5.22386.5.5 0 .81691-.3245 1.42273-.8381 1.83495z"/><path d="m10.5 10c.6259 0 1.1622.3833 1.3871.928.0727.1763.1129.3695.1129.572 0 1.1161-.459 2.0103-1.2121 2.6148-.7413.595-1.73482.8852-2.7879.8852s-2.04658-.2902-2.78785-.8852c-.75318-.6045-1.21215-1.4987-1.21215-2.6148 0-.2025.04015-.3957.11292-.572.22486-.5447.7612-.928 1.38706-.928zm0 1h-5.00002c-.27611 0-.49998.2239-.49998.5 0 .8169.32453 1.4227.8381 1.8349.52548.4218 1.28198.6651 2.1619.6651s1.63642-.2433 2.1619-.6651c.5136-.4122.8381-1.018.8381-1.8349 0-.2761-.2239-.5-.5-.5z"/></g></svg>